<?xml version="1.0" standalone="no"?>
<!DOCTYPE svg PUBLIC "-//W3C//DTD SVG 1.1//EN"
  "http://www.w3.org/Graphics/SVG/1.1/DTD/svg11.dtd">
<svg version="1.1" xmlns="http://www.w3.org/2000/svg" xmlns:xlink="http://www.w3.org/1999/xlink" width="3840" height="2160" viewBox="-716.8888888888889 -32 2513.777777777778 1414" id="ccdiagram"><filter id="grayscale"><feColorMatrix type="saturate" values="0"></feColorMatrix></filter><filter id="highlight"><feColorMatrix type="matrix" color-interpolation-filters="sRGB" values="0.20338 0 0 0 0
                0 0.58474 0 0 0
                0 0 0.97033 0 0
                0 0 0 1 0"></feColorMatrix></filter><defs><style type="text/css">@import url('https://fonts.googleapis.com/css?family=Open+Sans:400,700|Inconsolata:400');</style></defs><g><rect x="-716.8888888888889" y="-32" width="2513.777777777778" height="1414" fill="none" id="interactionLayer"></rect><g pointer-events="auto"><g><g><g><polygon points="428 68, 698 68, 743 113, 743 203, 698 248, 428 248, 383 203, 383 113" fill="#e7e7e7" stroke-width="0" stroke="#cccccc"></polygon><polygon points="428 113, 698 113, 698 203, 428 203" fill="#cccccc"></polygon></g></g></g><g><g><g><polygon points="180 293, 878 293, 923 338, 923 765, 878 810, 180 810, 135 765, 135 338" fill="#e7e7e7" stroke-width="0" stroke="#cccccc"></polygon><polygon points="180 338, 878 338, 878 765, 180 765" fill="#cccccc"></polygon></g></g></g><g><g><g><polygon points="360 855, 630 855, 675 900, 675 1013, 630 1058, 360 1058, 315 1013, 315 900" fill="#f8e9c2" stroke-width="0" stroke="#f5d382"></polygon><polygon points="360 900, 630 900, 630 1013, 360 1013" fill="#f5d382"></polygon></g></g></g></g><g pointer-events="auto"></g><g pointer-events="auto"></g><g pointer-events="auto"></g><g pointer-events="auto"></g><g pointer-events="auto"></g><g pointer-events="auto"></g><g pointer-events="auto"></g><g pointer-events="none"></g><g pointer-events="auto"><g id="9899fd7e-ed63-48c2-87cc-ff6ec4c3df70-bb89c4e1-0cd0-4c3c-9096-616e40ce1ea3"><g cursor="cell"><line x1="563" y1="450" x2="371" y2="599" stroke="red" stroke-width="8" opacity="0"></line><line x1="563" y1="450" x2="371" y2="599" stroke="#222222" stroke-width="2" stroke-linecap="round"></line><polygon points="360 608, 386 602, 374 597, 372 583, 360 608" stroke-linejoin="round" fill="#222222" stroke="#222222" stroke-width="1"></polygon></g></g><g id="d7275afc-7843-441d-a4a2-a41d16f3deda-3076bd7b-6b57-49e8-8f7e-9d24ad27d6f2"><g cursor="cell"><line x1="675" y1="653" x2="729" y2="653" stroke="red" stroke-width="8" opacity="0"></line><line x1="675" y1="653" x2="729" y2="653" stroke="#222222" stroke-width="2" stroke-linecap="round"></line><polygon points="743 653, 718 642, 725 653, 718 665, 743 653" stroke-linejoin="round" fill="#222222" stroke="#222222" stroke-width="1"></polygon></g></g><g id="9899fd7e-ed63-48c2-87cc-ff6ec4c3df70-01247c4b-f57a-42b4-a760-3ef1371e5458"><g cursor="cell"><line x1="563" y1="347" x2="563" y2="238" stroke="red" stroke-width="8" opacity="0"></line><line x1="563" y1="347" x2="563" y2="238" stroke="#333333" stroke-width="2" stroke-linecap="round"></line><polygon points="563 360, 575 335, 563 342, 552 336, 563 360" stroke-linejoin="round" fill="#333333" stroke="#333333" stroke-width="1"></polygon><polygon points="563 225, 551 250, 563 243, 574 249, 563 225" stroke-linejoin="round" fill="#333333" stroke="#333333" stroke-width="1"></polygon></g></g><g id="9899fd7e-ed63-48c2-87cc-ff6ec4c3df70-3076bd7b-6b57-49e8-8f7e-9d24ad27d6f2"><g cursor="cell"><line x1="574" y1="458" x2="788" y2="608" stroke="red" stroke-width="8" opacity="0"></line><line x1="574" y1="458" x2="788" y2="608" stroke="#000000" stroke-width="2" stroke-linecap="round"></line><polygon points="563 450, 577 473, 578 460, 590 455, 563 450" stroke-linejoin="round" fill="#000000" stroke="#000000" stroke-width="1"></polygon></g></g><g id="bb89c4e1-0cd0-4c3c-9096-616e40ce1ea3-ce34422c-74a5-44b0-8e16-ccad4a04ebf5"><g cursor="cell"><line x1="360" y1="698" x2="360" y2="842" stroke="red" stroke-width="8" opacity="0"></line><line x1="360" y1="698" x2="360" y2="842" stroke="#333333" stroke-width="2" stroke-linecap="round"></line><polygon points="360 855, 371 831, 360 837, 349 831, 360 855" stroke-linejoin="round" fill="#333333" stroke="#333333" stroke-width="1"></polygon></g></g><g id="d7275afc-7843-441d-a4a2-a41d16f3deda-8834da6a-01e8-49db-9146-3a6bbbaea816"><g cursor="cell"><line x1="630" y1="712" x2="630" y2="855" stroke="red" stroke-width="8" opacity="0"></line><line x1="630" y1="712" x2="630" y2="855" stroke="#333333" stroke-width="2" stroke-linecap="round"></line><polygon points="630 698, 619 723, 630 716, 641 723, 630 698" stroke-linejoin="round" fill="#333333" stroke="#333333" stroke-width="1"></polygon></g></g></g><g pointer-events="auto"><g><g id="590a23b3-6125-46ce-9b2c-928395928b14"><g><polygon points="338 630, 383 630, 383 675, 338 675" fill="#ccc"></polygon></g></g></g><g><g id="c2c060ca-2fe1-4e74-8b96-a58d3f1ba006"><g><polygon points="608 653, 653 653, 653 698, 608 698" fill="#ccc"></polygon></g></g></g></g><g pointer-events="auto"><g><g id="99165b37-b624-48bd-b533-8c2837e8a175"><svg x="473" y="158" overflow="visible"><g transform="scale(1.1320000000000001) "><svg x="-30" y="-30.5" width="60" height="61"><svg width="60" height="61" viewBox="0 0 60 61"><g fill="none" fill-rule="evenodd"><g><g><path fill="#00D812" d="M30 44.84c-2.945 0-5.626-.793-8.044-2.377-2.418-1.586-4.23-3.625-5.437-6.117L4.625 15.5C2.133 19.957 1 24.942 1 30c0 7.25 2.36 13.576 7.08 18.975 4.719 5.4 10.592 8.628 17.615 9.686l8.412-14.556c-.846.248-2.258.736-4.107.736"></path><path fill="#E83A00" d="M20.881 18c2.68-2.075 5.72-3 9.12-3h24.921c-2.569-4.379-6.06-7.58-10.479-10.148C40.025 2.285 35.211 1 30 1c-4.532 0-8.762.962-12.688 2.89-3.927 1.924-7.562 4.728-10.224 8.326L15.5 26c.83-3.246 2.7-5.92 5.381-8"></path><path fill="#FCD100" d="M56.82 19.125H39.969C42.914 22.07 44.84 25.848 44.84 30c0 3.098-.868 5.93-2.606 8.497L30.34 59c7.93-.076 14.689-2.945 20.278-8.609 5.587-5.664 8.38-12.46 8.38-20.39 0-3.7-.622-7.592-2.18-10.876"></path><path fill="#00B1E1" d="M30 19c6.006 0 11 4.994 11 11s-4.994 11-11 11-11-4.994-11-11 4.994-11 11-11"></path><path stroke="#000" stroke-width="2" d="M30 44.84c-2.945 0-5.626-.793-8.044-2.377-2.418-1.586-4.23-3.625-5.437-6.117L4.625 15.5C2.133 19.957 1 24.942 1 30c0 7.25 2.36 13.576 7.08 18.975 4.719 5.4 10.592 8.628 17.615 9.686l8.412-14.556c-.846.248-2.258.736-4.107.736ZM20.881 18c2.68-2.075 5.72-3 9.12-3h24.921c-2.569-4.379-6.06-7.58-10.479-10.148C40.025 2.285 35.211 1 30 1c-4.532 0-8.762.962-12.688 2.89-3.927 1.924-7.562 4.728-10.224 8.326L15.5 26c.83-3.246 2.7-5.92 5.381-8Z"></path><path stroke="#000" stroke-width="2" d="M56.82 19.125H39.969C42.914 22.07 44.84 25.848 44.84 30c0 3.098-.868 5.93-2.606 8.497L30.34 59c7.93-.076 14.689-2.945 20.278-8.609 5.587-5.664 8.38-12.46 8.38-20.39 0-3.7-.622-7.592-2.18-10.876Z"></path><path stroke="#000" stroke-width="2" d="M30 19c6.006 0 11 4.994 11 11s-4.994 11-11 11-11-4.994-11-11 4.994-11 11-11Z"></path></g></g></g></svg></svg></g></svg></g></g><g><g id="f610abe8-6f7c-43a4-bce4-4db8e3bde86f"><svg x="653" y="158" overflow="visible"><g transform="scale(0.2830000000000002) "><svg x="-128" y="-132.5" width="256" height="265"><svg preserveAspectRatio="xMidYMid" viewBox="0 0 256 265"><defs><radialGradient id="a" cx="-14920.226" cy="-8274.071" r="124.382" fx="-14928.161" fy="-8274.071" gradientTransform="matrix(.7398 .0292 -.04867 1.0902 10886.526 9537.696)" gradientUnits="userSpaceOnUse"><stop offset=".1" style="stop-color:#ffea00"></stop><stop offset=".17" style="stop-color:#ffde00"></stop><stop offset=".28" style="stop-color:#ffbf00"></stop><stop offset=".43" style="stop-color:#ff8e00"></stop><stop offset=".77" style="stop-color:#ff272d"></stop><stop offset=".87" style="stop-color:#e0255a"></stop><stop offset=".95" style="stop-color:#cc2477"></stop><stop offset="1" style="stop-color:#c42482"></stop></radialGradient><radialGradient id="b" cx="-8176.534" cy="-7746.301" r="218.273" gradientTransform="translate(9957.373 9315.522) scale(1.1973)" gradientUnits="userSpaceOnUse"><stop offset="0" style="stop-color:#00ccda"></stop><stop offset=".22" style="stop-color:#0083ff"></stop><stop offset=".26" style="stop-color:#007af9"></stop><stop offset=".33" style="stop-color:#0060e8"></stop><stop offset=".33" style="stop-color:#005fe7"></stop><stop offset=".44" style="stop-color:#2639ad"></stop><stop offset=".52" style="stop-color:#401e84"></stop><stop offset=".57" style="stop-color:#4a1475"></stop></radialGradient><radialGradient id="d" cx="-9132.676" cy="-6696.7" r="73.626" gradientTransform="matrix(1.1875 .1168 -.1168 1.1875 10322.184 9194.845)" gradientUnits="userSpaceOnUse"><stop offset="0" style="stop-color:#ffea00"></stop><stop offset=".5" style="stop-color:#ff272d"></stop><stop offset="1" style="stop-color:#c42482"></stop></radialGradient><radialGradient id="e" cx="-9139.338" cy="-6767.297" r="122.948" gradientTransform="matrix(1.1875 .1168 -.1168 1.1875 10322.184 9194.845)" gradientUnits="userSpaceOnUse"><stop offset="0" style="stop-color:#ffe900"></stop><stop offset=".16" style="stop-color:#ffaf0e"></stop><stop offset=".32" style="stop-color:#ff7a1b"></stop><stop offset=".47" style="stop-color:#ff4e26"></stop><stop offset=".62" style="stop-color:#ff2c2e"></stop><stop offset=".76" style="stop-color:#ff1434"></stop><stop offset=".89" style="stop-color:#ff0538"></stop><stop offset="1" style="stop-color:#ff0039"></stop></radialGradient><radialGradient id="f" cx="-9121.947" cy="-6653.326" r="112.818" gradientTransform="matrix(1.1875 .1168 -.1168 1.1875 10322.184 9194.845)" gradientUnits="userSpaceOnUse"><stop offset="0" style="stop-color:#ff272d"></stop><stop offset=".5" style="stop-color:#c42482"></stop><stop offset=".99" style="stop-color:#620700"></stop></radialGradient><radialGradient id="g" cx="227.574" cy="408.42" r="215.776" fx="235.292" fy="404.605" gradientTransform="translate(-29.473 -291.75) scale(.9734)" gradientUnits="userSpaceOnUse"><stop offset=".16" style="stop-color:#ffea00"></stop><stop offset=".23" style="stop-color:#ffde00"></stop><stop offset=".37" style="stop-color:#ffbf00"></stop><stop offset=".54" style="stop-color:#ff8e00"></stop><stop offset=".76" style="stop-color:#ff272d"></stop><stop offset=".8" style="stop-color:#f92433"></stop><stop offset=".84" style="stop-color:#e91c45"></stop><stop offset=".89" style="stop-color:#cf0e62"></stop><stop offset=".94" style="stop-color:#b5007f"></stop></radialGradient><radialGradient id="h" cx="215.202" cy="308.35" r="245.92" gradientTransform="translate(-29.473 -291.75) scale(.9734)" gradientUnits="userSpaceOnUse"><stop offset=".28" style="stop-color:#ffea00"></stop><stop offset=".4" style="stop-color:#fd0"></stop><stop offset=".63" style="stop-color:#ffba00"></stop><stop offset=".86" style="stop-color:#ff9100"></stop><stop offset=".93" style="stop-color:#ff6711"></stop><stop offset=".99" style="stop-color:#ff4a1d"></stop></radialGradient><linearGradient id="c" x1="145.243" x2="93.837" y1="481.786" y2="313.629" gradientTransform="translate(0 -286)" gradientUnits="userSpaceOnUse"><stop offset="0" style="stop-color:#000f43;stop-opacity:.4"></stop><stop offset=".48" style="stop-color:#001962;stop-opacity:.17"></stop><stop offset="1" style="stop-color:#002079;stop-opacity:0"></stop></linearGradient><linearGradient id="i" x1="-9348.662" x2="-9266.217" y1="-6754.194" y2="-6775.209" gradientTransform="matrix(1.22 .12 -.12 1.22 10634.76 9460)" gradientUnits="userSpaceOnUse"><stop offset="0" style="stop-color:#c42482;stop-opacity:.5"></stop><stop offset=".47" style="stop-color:#ff272d;stop-opacity:.5"></stop><stop offset=".49" style="stop-color:#ff2c2c;stop-opacity:.51"></stop><stop offset=".68" style="stop-color:#ff7a1a;stop-opacity:.72"></stop><stop offset=".83" style="stop-color:#ffb20d;stop-opacity:.87"></stop><stop offset=".94" style="stop-color:#ffd605;stop-opacity:.96"></stop><stop offset="1" style="stop-color:#ffe302"></stop></linearGradient><linearGradient id="j" x1="103.092" x2="88.439" y1="-1126.781" y2="-1164.334" gradientTransform="matrix(.99 .1 -.1 .99 -175.62 1176.21)" gradientUnits="userSpaceOnUse"><stop offset="0" style="stop-color:#891551;stop-opacity:.6"></stop><stop offset="1" style="stop-color:#c42482;stop-opacity:0"></stop></linearGradient><linearGradient id="k" x1="-193.279" x2="-168.009" y1="534.177" y2="562.877" gradientTransform="matrix(.99 .1 -.1 .99 303.51 -384.2)" gradientUnits="userSpaceOnUse"><stop offset=".01" style="stop-color:#891551;stop-opacity:.5"></stop><stop offset=".48" style="stop-color:#ff272d;stop-opacity:.5"></stop><stop offset="1" style="stop-color:#ff272d;stop-opacity:0"></stop></linearGradient><linearGradient id="l" x1="-144.684" x2="-144.665" y1="583.677" y2="563.596" gradientTransform="matrix(.99 .1 -.1 .99 303.51 -384.2)" gradientUnits="userSpaceOnUse"><stop offset="0" style="stop-color:#c42482"></stop><stop offset=".08" style="stop-color:#c42482;stop-opacity:.81"></stop><stop offset=".21" style="stop-color:#c42482;stop-opacity:.57"></stop><stop offset=".33" style="stop-color:#c42482;stop-opacity:.36"></stop><stop offset=".45" style="stop-color:#c42482;stop-opacity:.2"></stop><stop offset=".56" style="stop-color:#c42482;stop-opacity:9.000000e-02"></stop><stop offset=".67" style="stop-color:#c42482;stop-opacity:2.000000e-02"></stop><stop offset=".77" style="stop-color:#c42482;stop-opacity:0"></stop></linearGradient><linearGradient id="m" x1="166.591" x2="248.667" y1="295.714" y2="479.246" gradientTransform="translate(0 -286)" gradientUnits="userSpaceOnUse"><stop offset="0" style="stop-color:#fff14f"></stop><stop offset=".27" style="stop-color:#ffee4c"></stop><stop offset=".45" style="stop-color:#ffe643"></stop><stop offset=".61" style="stop-color:#ffd834"></stop><stop offset=".76" style="stop-color:#ffc41e"></stop><stop offset=".89" style="stop-color:#ffab02"></stop><stop offset=".9" style="stop-color:#ffa900"></stop><stop offset=".95" style="stop-color:#ffa000"></stop><stop offset="1" style="stop-color:#ff9100"></stop></linearGradient><linearGradient id="n" x1="182.888" x2="144.011" y1="401.274" y2="505.662" gradientTransform="translate(0 -286)" gradientUnits="userSpaceOnUse"><stop offset="0" style="stop-color:#ff8e00"></stop><stop offset=".04" style="stop-color:#ff8e00;stop-opacity:.86"></stop><stop offset=".08" style="stop-color:#ff8e00;stop-opacity:.73"></stop><stop offset=".13" style="stop-color:#ff8e00;stop-opacity:.63"></stop><stop offset=".18" style="stop-color:#ff8e00;stop-opacity:.56"></stop><stop offset=".23" style="stop-color:#ff8e00;stop-opacity:.51"></stop><stop offset=".28" style="stop-color:#ff8e00;stop-opacity:.5"></stop><stop offset=".39" style="stop-color:#ff8e00;stop-opacity:.48"></stop><stop offset=".52" style="stop-color:#ff8e00;stop-opacity:.42"></stop><stop offset=".68" style="stop-color:#ff8e00;stop-opacity:.31"></stop><stop offset=".84" style="stop-color:#ff8e00;stop-opacity:.17"></stop><stop offset="1" style="stop-color:#ff8e00;stop-opacity:0"></stop></linearGradient></defs><g><path fill="url(#a)" d="M206.8 24.6c-6.4 7.5-9.4 24.3-2.9 41.4s16.5 13.4 22.7 30.8c8.2 23 4.4 53.9 4.4 53.9s9.9 28.6 16.8-1.8c15.3-57.1-41-110.2-41-124.3z"></path><path fill="url(#b)" d="M128.4 261.7c65.9 0 119.2-53.6 119.2-119.8S194.2 22.2 128.4 22.2 9.3 75.8 9.3 141.9c-.1 66.2 53.3 119.8 119.1 119.8z"></path><path fill="url(#c)" d="M217.7 215.8c-2.6 1.8-5.3 3.4-8.1 4.9 3.7-5.5 7.2-11.1 10.3-16.9 2.5-2.8 4.9-5.5 6.8-8.5.9-1.5 2-3.2 3.1-5.3 6.7-12.1 14.1-31.6 14.3-51.6v-1.5c0-5-.5-10.1-1.5-15 .1.4.1.8.2 1.2-.1-.3-.1-.6-.2-.9.1.5.2 1.1.3 1.6 1.4 11.6.4 22.9-4.5 31.3-.1.1-.2.2-.2.4 2.5-12.7 3.4-26.7.6-40.7 0 0-1.1-6.8-9.5-27.5-4.8-11.9-13.4-21.7-20.9-28.8-6.6-8.2-12.7-13.7-16-17.2-6.9-7.3-9.8-12.8-11-16.3-1-.5-14.3-13.4-15.3-13.9-5.8 9-23.9 37-15.3 63.1 3.9 11.9 13.8 24.2 24.2 31.1.5.5 6.2 6.7 8.9 20.7 2.8 14.5 1.3 25.7-4.4 42.4-6.8 14.6-24.2 29.1-40.5 30.6-34.8 3.2-47.6-17.5-47.6-17.5 12.4 5 26.2 3.9 34.6-1.2 8.4-5.2 13.5-9.1 17.7-7.6 4.1 1.5 7.3-2.9 4.4-7.5-4.6-7.1-13-10.7-21.3-9.3-8.4 1.4-16.2 8.1-27.2 1.6-.7-.4-1.4-.9-2.1-1.4s2.4.7 1.6.2c-2.1-1.2-6-3.7-6.9-4.6-.2-.2 1.7.6 1.5.4-10.3-8.5-9-14.3-8.7-17.9.3-2.9 2.1-6.6 5.3-8.1 1.5.8 2.5 1.5 2.5 1.5s-.7-1.3-1-2c.1-.1.2 0 .4-.1 1.3.6 4 2.2 5.5 3.1 1.9 1.3 2.5 2.5 2.5 2.5s.5-.3.1-1.4c-.1-.5-.7-2-2.6-3.5h.1c1.1.6 2.2 1.4 3.2 2.2.5-1.9 1.5-3.9 1.3-7.5-.1-2.5-.1-3.2-.5-4.2-.4-.8.2-1.2.9-.3-.1-.7-.3-1.4-.6-2v-.1c.9-3 18.3-10.9 19.6-11.8 2.1-1.5 3.8-3.4 5.1-5.6 1-1.5 1.7-3.7 1.9-7 .1-2.4-1-4-18.7-5.8-4.8-.5-7.7-4-9.3-7.2-.3-.7-.6-1.3-.9-2s-.5-1.5-.7-2.3c2.9-8.3 7.7-15.3 14.9-20.6.4-.4-1.6.1-1.2-.3.5-.4 3.4-1.6 4-1.9.7-.3-2.9-1.9-6.1-1.5s-3.9.8-5.7 1.5c.7-.7 3-1.7 2.5-1.6-3.5.5-7.8 2.6-11.5 4.9 0-.4.1-.8.2-1.2-1.7.7-6 3.7-7.2 6.2.1-.5.1-1 .1-1.5-1.3 1.1-2.5 2.3-3.5 3.7l-.6.2c-10-4-18.9-4.3-26.3-2.5-1.6-1.6-2.4-.4-6.2-8.6-.3-.5.2.5 0 0-.6-1.6.4 2.1 0 0-6.2 5-14.4 10.6-18.4 14.5 0 .2 4.6-1.3 0 0-1.6.5-1.5 1.4-1.7 10.1-.1.7 0 1.4-.1 2-3.2 4-5.3 7.4-6.1 9.2-4.1 7-8.6 18-12.9 35.3 1.9-4.7 4.2-9.2 6.9-13.5-3.6 9.2-7.1 23.7-7.8 45.9.9-4.6 2-9.1 3.4-13.6-.9 18.5 2.3 36.9 9.3 54 2.5 6.1 6.6 15.4 13.7 25.6 22.2 23.3 53.4 37.8 88 37.8 36.1 0 68.6-15.8 90.9-40.9z"></path><path fill="url(#d)" d="M190.9 232.7c43.7-5.1 63.1-50.1 38.2-51-22.4-.7-58.9 53.4-38.2 51z"></path><path fill="url(#e)" d="M232.3 172.5c30.1-17.5 22.2-55.3 22.2-55.3s-11.6 13.5-19.5 35c-7.7 21.3-20.8 30.9-2.7 20.3z"></path><path fill="url(#f)" d="M136.8 255.1c42 13.4 78-19.7 55.8-30.7-20.2-9.9-75.7 24.4-55.8 30.7z"></path><path fill="url(#g)" d="M235.5 188.6c1-1.4 2.4-6 3.6-8.1 7.4-12 7.5-21.5 7.5-21.7 4.5-22.3 4.1-31.5 1.3-48.3-2.2-13.6-11.9-33.1-20.3-42.4-8.6-9.7-2.6-6.5-10.9-13.6-7.3-8.1-14.5-16.2-18.3-19.4-28-23.4-27.4-28.4-26.8-29.2l-.4.4c-.3-1.3-.6-2.4-.6-2.4S155.2 19.1 152 44.6c-2.1 16.6 4.1 34 13.2 45.1 4.7 5.8 10 11 15.8 15.6 6.8 9.8 10.6 21.9 10.6 34.9 0 32.6-26.4 58.9-59 58.9-4.4 0-8.9-.5-13.2-1.5-15.4-2.9-24.2-10.7-28.7-16-2.5-3-3.6-5.2-3.6-5.2 13.8 4.9 29 3.9 38.3-1.2 9.3-5.2 15-9 19.6-7.5 4.5 1.5 8.1-2.9 4.9-7.4-3.2-4.5-11.4-11-23.6-9.2-9.3 1.4-17.9 8-30.1 1.6-.8-.4-1.6-.9-2.3-1.3-.8-.5 2.6.7 1.8.2-2.4-1.2-6.6-3.7-7.7-4.6-.2-.2 1.8.6 1.7.4-11.4-8.4-10-14.1-9.7-17.7.3-2.9 2.4-6.5 5.9-8 1.7.8 2.7 1.5 2.7 1.5s-.7-1.3-1.1-2c.1-.1.3 0 .4-.1 1.4.6 4.5 2.1 6.1 3.1 2.1 1.3 2.8 2.5 2.8 2.5s.6-.3.1-1.4c-.2-.5-.8-2-2.9-3.5h.1c1.2.6 2.4 1.4 3.5 2.2.6-1.9 1.6-3.9 1.4-7.5-.1-2.5-.1-3.2-.6-4.1-.4-.8.2-1.2 1-.3-.1-.7-.4-1.3-.7-2v-.1c1-3 20.3-10.8 21.7-11.7 2.3-1.4 4.2-3.3 5.7-5.5 1.1-1.5 1.9-3.7 2.1-7 .1-1.5-.4-2.6-5.5-3.8-3.1-.7-7.8-1.3-15.2-2-5.3-.5-8.5-3.9-10.3-7.1-.3-.7-.7-1.3-1-1.9-.3-.7-.6-1.5-.8-2.2 3.2-8.4 9-15.5 16.5-20.4.4-.4-1.7.1-1.3-.3.5-.4 3.8-1.6 4.4-1.9.8-.3-3.2-1.8-6.8-1.5-3.6.4-4.3.7-6.3 1.5.8-.7 3.3-1.6 2.7-1.6-3.6.4-8.4 2.4-12.5 4.7 0-.4.1-.8.2-1.2-1.9.7-6.6 3.7-8 6.2.1-.5.1-1 .1-1.4-1.4 1.1-2.8 2.3-3.9 3.7l-.1.1c-11.1-4-20.9-4.3-29.1-2.5-1.8-1.6-4.7-4.1-8.8-12.2-.3-.5-.4 1-.6.5-1.6-3.7-2.6-9.8-2.4-14 0 0-3.3 1.5-6 7.8-.5 1.1-.8 1.8-1.2 2.4-.2.2.3-2.1.3-1.9-.5.8-1.7 1.9-2.2 3.4-.4 1.1-.9 1.7-1.2 3l-.1.1c0-.4.1-1.6 0-1.4-1.3 2.6-2.4 5.3-3.3 8-1.5 4.8-3.2 11.4-3.5 20-.1.6 0 1.4-.1 2-3.5 4-5.9 7.4-6.8 9.1-4.5 7-9.5 17.8-14.3 35 2.1-4.7 4.7-9.2 7.7-13.4-4 9.1-7.9 23.5-8.7 45.5 1-4.6 2.2-9.1 3.7-13.5-.7 14.7 1 33 10.3 53.6 5.5 12.1 18.2 36.7 49.3 55.9 0 0 10.6 7.9 28.7 13.8 1.3.5 2.7 1 4.1 1.4-.4-.2-.9-.4-1.3-.5 12.1 3.6 24.6 5.5 37.3 5.5 47 0 60.9-18.9 60.9-18.9l-.1.1c.7-.6 1.3-1.3 1.9-1.9-7.4 7-24.4 7.5-30.7 7 10.8-3.2 17.9-5.9 31.7-11.1 1.6-.6 3.3-1.3 5-2.1l.5-.3c.3-.2.7-.3 1-.5 6.7-3.2 13.1-7.1 18.9-11.8 13.9-11.1 16.9-21.9 18.5-29-.2.7-.9 2.3-1.4 3.3-3.6 7.6-11.5 12.4-20.1 16.4 4.1-5.4 7.9-11 11.4-16.8 2.8-2.8 3.6-7.2 5.8-10.1z"></path><path fill="url(#h)" d="M218.6 215.1c5.7-6.2 10.7-13.4 14.6-21.5 9.9-20.8 25.2-55.5 13.2-91.6-9.5-28.6-22.6-44.2-39.2-59.5-27-24.8-34.5-35.9-34.5-42.5 0 0-31.2 34.7-17.7 71s41.2 34.9 59.5 72.7c21.6 44.5-17.4 93.1-49.7 106.7 2-.4 71.7-16.2 75.4-56.1-.2.7-1.8 11.8-21.6 20.8z"></path><path fill="url(#i)" d="M128.2 85.8c.1-2.4-1.1-3.9-20.6-5.8-8-.7-11.1-8.1-12-11.3-2.8 7.4-4 15.2-3.4 24.6.4 6.2 4.6 12.8 6.5 16.6 0 0 .4-.6.6-.8 3.7-3.9 19.3-9.8 20.8-10.6 1.7-1 7.9-5.5 8.1-12.7z"></path><path fill="url(#j)" d="M42.5 42c-.3-.5-.4 1-.6.5-1.6-3.7-2.6-9.7-2.3-14 0 0-3.3 1.5-6 7.8-.5 1.1-.8 1.8-1.2 2.4-.2.2.3-2.1.3-1.9-.5.8-1.7 1.9-2.2 3.3-.4 1.1-.9 1.8-1.2 3.2-.1.4.1-1.7 0-1.4-6.4 12.3-7.6 30.9-6.9 30.1C36 57.5 51.5 54.1 51.5 54.1c-1.9-1.2-5.5-4.8-9-12.1z"></path><path fill="url(#k)" d="M93.9 193.4c-18.7-8-40-19.3-39.2-44.9 1.1-33.7 31.5-27.1 31.5-27.1-1.1.3-4.2 2.5-5.3 4.8-1.1 2.9-3.2 9.5 3.1 16.4 10 10.8-20.5 25.6 26.5 53.6 1.2.6-11-.4-16.6-2.8z"></path><path fill="url(#l)" d="M87.3 176.6c13.3 4.6 28.7 3.8 38-1.3 6.2-3.5 14.2-9 19-7.6-4.2-1.7-7.4-2.5-11.3-2.6-.7 0-1.4 0-2.1-.1-1.4 0-2.8.1-4.2.2-2.4.2-5 1.7-7.4 1.5-.1 0 2.3-1 2.1-1-1.3.3-2.7.3-4.1.5-.9.1-1.7.2-2.7.3-27.7 2.3-51-15-51-15-2 6.6 8.9 19.9 23.7 25.1z"></path><path fill="url(#m)" d="M218.5 215.3c28-27.5 42.1-60.8 36.1-98.3 0 0 2.4 19.2-6.7 38.8 4.4-19.2 4.9-43-6.7-67.7-15.4-32.9-40.8-50.3-50.5-57.5-14.7-11-20.8-22.1-20.9-24.4-4.4 9-17.7 39.8-1.4 66.3 15.2 24.9 39.2 32.2 55.9 55 31 42.1-5.8 87.8-5.8 87.8z"></path><path fill="url(#n)" d="M214.5 143.8c-9.8-20.2-22-29-33.5-38.5 1.3 1.9 1.7 2.5 2.4 3.8 10.2 10.8 25.1 37.2 14.3 70.4-20.5 62.4-102.3 33-110.9 24.8 3.5 36.1 63.9 53.4 103.3 30 22.3-21.4 40.4-57.4 24.4-90.5z"></path></g></svg></svg></g></svg></g></g><g><g id="19a74a6e-09e0-4b93-95a8-e3f92e2b112b"><svg x="563" y="158" overflow="visible"><g transform="scale(1.2735) "><svg x="-29.5" y="-29" width="59" height="58"><svg width="59" height="58" viewBox="0 0 59 58"><g fill="none" fill-rule="evenodd"><g><g><path fill="#00C8F6" d="M21 34c0 1.872.829 3.522 1.693 5.236a11.465 11.465 0 0 0 4.162 4.271c1.758 1.051 3.713 1.578 5.861 1.578 2.149 0 4.107-.527 5.865-1.578 1.757-1.055 3.145-2.713 4.16-4.507h13.956c-1.801 5.072-4.926 9.463-9.38 12.697-4.458 3.237-9.462 4.856-15.01 4.856-4.143 0-8.052-.896-11.725-2.692-8.208 3.98-14.111 4.175-17.706.586C1.624 53.28 1 51.328 1 48.597c0-2.73.527-5.773 1.584-9.128 1.055-3.353 2.813-7.04 5.277-11.058 1.933-3.156 3.342-5.684 8.733-10.94C18.549 15.44 19.455 14.466 20 14c-4.848 2.336-11 6.561-16 11 2.958-7.376 7.187-11.25 12.301-14.438 5.511-3.313 9.985-5.5 16.006-5.5.625 0 1.248.04 1.874.116 4.379-1.95 8.365-3.042 11.962-3.277 3.595-.235 6.134.351 7.62 1.755 2.97 3.043 3.244 7.802.821 14.276C56.85 21.92 57 26.398 57 31c0 1.092.077 2.14 0 3H21Z"></path><path fill="#FFF" d="M17 51c-5.236-3.198-6.973-5.753-9.084-11.529C4.399 46.338 3.422 49.426 6 52.001c2.268 2.262 4.978 1.728 11-1M43 27c-.157-2.81-1.196-5.256-3.305-7.246C37.584 17.766 35.102 17 32.25 17c-2.856 0-5.336.766-7.446 2.754C22.691 21.744 21.157 24.19 21 27h22ZM41.804 6.94C46.604 9.293 47.416 9.77 51 14c1.237-3.325 1.364-4.175.916-5.215-.514-1.193-1.479-2.142-2.634-2.737-1.778-.915-3.03-.992-7.478.893"></path><path stroke="#000" stroke-width="2" d="M41.804 6.94C46.604 9.293 47.416 9.77 51 14c1.237-3.325 1.364-4.175.916-5.215-.514-1.193-1.479-2.142-2.634-2.737-1.778-.915-3.03-.992-7.478.893ZM43 27c-.157-2.81-1.196-5.256-3.305-7.246C37.583 17.766 35.102 17 32.25 17c-2.856 0-5.336.766-7.445 2.754C22.691 21.744 21.156 24.19 21 27h22ZM17 51c-5.237-3.198-6.973-5.752-9.084-11.528C4.4 46.338 3.422 49.426 6 52c2.268 2.263 4.978 1.73 11-1Zm4-17c0 1.873.83 3.522 1.693 5.236a11.462 11.462 0 0 0 4.161 4.27c1.76 1.052 3.713 1.579 5.862 1.579 2.15 0 4.107-.527 5.865-1.578 1.757-1.055 3.145-2.713 4.16-4.507h13.956c-1.802 5.073-4.927 9.463-9.38 12.697-4.458 3.237-9.463 4.857-15.01 4.857-4.143 0-8.052-.896-11.726-2.692-8.208 3.98-14.11 4.174-17.705.586C1.623 53.278 1 51.328 1 48.597c0-2.73.527-5.772 1.584-9.127 1.054-3.353 2.813-7.041 5.277-11.06 1.932-3.154 3.342-5.683 8.733-10.94C18.55 15.44 19.454 14.467 20 14c-4.848 2.338-11 6.563-16 11 2.958-7.375 7.187-11.25 12.3-14.437 5.512-3.313 9.986-5.5 16.006-5.5.626 0 1.25.039 1.874.116 4.38-1.951 8.365-3.041 11.962-3.276 3.596-.236 6.134.35 7.62 1.754 2.97 3.043 3.245 7.802.822 14.277C56.85 21.919 57 26.398 57 31c0 1.093.076 2.14 0 3H21.001Z"></path></g></g></g></svg></svg></g></svg></g></g></g><g pointer-events="auto"><g><g id="bb89c4e1-0cd0-4c3c-9096-616e40ce1ea3"><svg x="360" y="653" overflow="visible"><g transform="scale(1.4131949617798671) "><circle cx="0" cy="0" fill="transparent" r="39"></circle><svg width="64" height="64" x="-32" y="-32" style="fill: rgb(255, 255, 255);"><svg xmlns="http://www.w3.org/2000/svg" width="64" height="64" viewBox="0 0 64 64"><defs><linearGradient id="RDS_svg__a" x1="0%" x2="100%" y1="100%" y2="0%"><stop offset="0%" stop-color="#2E27AD"></stop><stop offset="100%" stop-color="#527FFF"></stop></linearGradient></defs><g fill="none" fill-rule="evenodd"><g fill="url(#RDS_svg__a)"><path d="M0 0h64v64H0z"></path></g><path fill="#FFF" d="M54 11v8h-2v-5.586l-6.293 6.293-1.414-1.414L50.586 12h-5.461v-2H53a1 1 0 0 1 1 1Zm-42 7.875h-2V11a1 1 0 0 1 1-1h8v2h-5.586l6.293 6.293-1.414 1.414L12 13.414v5.461Zm7.707 26.832L13.414 52h5.461v2H11a1 1 0 0 1-1-1v-8h2v5.586l6.293-6.293 1.414 1.414ZM51.5 31.781c0-2.429-2.866-4.849-7.667-6.474l.641-1.894c5.736 1.941 9.026 4.991 9.026 8.368 0 3.377-3.29 6.427-9.026 8.369l-.641-1.895c4.801-1.624 7.667-4.045 7.667-6.474Zm-38.957 0c0 2.324 2.681 4.679 7.172 6.3l-.68 1.88c-5.396-1.947-8.492-4.928-8.492-8.18 0-3.251 3.096-6.233 8.492-8.18l.68 1.881c-4.491 1.621-7.172 3.976-7.172 6.299ZM52 45.125h2V53a1 1 0 0 1-1 1h-8v-2h5.586l-6.293-6.293 1.414-1.414L52 50.586v-5.461ZM32.022 31.402c-5.023 0-7.896-1.343-8.022-1.919v-3.226c2.159 1.009 5.609 1.336 8 1.336s5.841-.327 8-1.336v3.226c-.106.574-2.949 1.919-7.978 1.919Zm0 5.728c-5.023 0-7.896-1.344-8.022-1.92v-3.254c1.953.981 5.055 1.446 8.022 1.446 2.951 0 6.033-.464 7.978-1.442v3.25c-.106.575-2.948 1.92-7.978 1.92ZM32 42.268c-5.05 0-7.896-1.351-8-1.922v-2.663c1.953.982 5.055 1.447 8.022 1.447 2.951 0 6.033-.464 7.978-1.443v2.655c-.104.575-2.95 1.926-8 1.926Zm0-20.075c4.971 0 7.642 1.177 7.982 1.701-.34.523-3.011 1.699-7.982 1.699-5.091 0-7.767-1.232-8-1.644v-.019c.233-.504 2.909-1.737 8-1.737Zm0-2c-3.714 0-10 .78-10 3.701v16.452c0 2.695 5.184 3.922 10 3.922s10-1.227 10-3.922V23.894c0-2.921-6.286-3.701-10-3.701Z"></path></g></svg></svg></g></svg></g></g><g><g id="3076bd7b-6b57-49e8-8f7e-9d24ad27d6f2"><svg x="788" y="653" overflow="visible"><g transform="scale(1.4131949617798671) "><circle cx="0" cy="0" fill="transparent" r="39"></circle><svg width="64" height="64" x="-32" y="-32" style="fill: rgb(255, 255, 255);"><svg xmlns="http://www.w3.org/2000/svg" width="64" height="64" viewBox="0 0 64 64"><defs><linearGradient id="RDS_svg__a" x1="0%" x2="100%" y1="100%" y2="0%"><stop offset="0%" stop-color="#2E27AD"></stop><stop offset="100%" stop-color="#527FFF"></stop></linearGradient></defs><g fill="none" fill-rule="evenodd"><g fill="url(#RDS_svg__a)"><path d="M0 0h64v64H0z"></path></g><path fill="#FFF" d="M54 11v8h-2v-5.586l-6.293 6.293-1.414-1.414L50.586 12h-5.461v-2H53a1 1 0 0 1 1 1Zm-42 7.875h-2V11a1 1 0 0 1 1-1h8v2h-5.586l6.293 6.293-1.414 1.414L12 13.414v5.461Zm7.707 26.832L13.414 52h5.461v2H11a1 1 0 0 1-1-1v-8h2v5.586l6.293-6.293 1.414 1.414ZM51.5 31.781c0-2.429-2.866-4.849-7.667-6.474l.641-1.894c5.736 1.941 9.026 4.991 9.026 8.368 0 3.377-3.29 6.427-9.026 8.369l-.641-1.895c4.801-1.624 7.667-4.045 7.667-6.474Zm-38.957 0c0 2.324 2.681 4.679 7.172 6.3l-.68 1.88c-5.396-1.947-8.492-4.928-8.492-8.18 0-3.251 3.096-6.233 8.492-8.18l.68 1.881c-4.491 1.621-7.172 3.976-7.172 6.299ZM52 45.125h2V53a1 1 0 0 1-1 1h-8v-2h5.586l-6.293-6.293 1.414-1.414L52 50.586v-5.461ZM32.022 31.402c-5.023 0-7.896-1.343-8.022-1.919v-3.226c2.159 1.009 5.609 1.336 8 1.336s5.841-.327 8-1.336v3.226c-.106.574-2.949 1.919-7.978 1.919Zm0 5.728c-5.023 0-7.896-1.344-8.022-1.92v-3.254c1.953.981 5.055 1.446 8.022 1.446 2.951 0 6.033-.464 7.978-1.442v3.25c-.106.575-2.948 1.92-7.978 1.92ZM32 42.268c-5.05 0-7.896-1.351-8-1.922v-2.663c1.953.982 5.055 1.447 8.022 1.447 2.951 0 6.033-.464 7.978-1.443v2.655c-.104.575-2.95 1.926-8 1.926Zm0-20.075c4.971 0 7.642 1.177 7.982 1.701-.34.523-3.011 1.699-7.982 1.699-5.091 0-7.767-1.232-8-1.644v-.019c.233-.504 2.909-1.737 8-1.737Zm0-2c-3.714 0-10 .78-10 3.701v16.452c0 2.695 5.184 3.922 10 3.922s10-1.227 10-3.922V23.894c0-2.921-6.286-3.701-10-3.701Z"></path></g></svg></svg></g></svg></g></g><g><g id="d7275afc-7843-441d-a4a2-a41d16f3deda"><svg x="630" y="653" overflow="visible"><g transform="scale(1.4131949617798671) "><circle cx="0" cy="0" fill="transparent" r="39"></circle><svg width="64" height="64" x="-32" y="-32" style="fill: rgb(255, 255, 255);"><svg xmlns="http://www.w3.org/2000/svg" width="64" height="64" viewBox="0 0 64 64"><defs><linearGradient id="EC2_svg__a" x1="0%" x2="100%" y1="100%" y2="0%"><stop offset="0%" stop-color="#C8511B"></stop><stop offset="100%" stop-color="#F90"></stop></linearGradient></defs><g fill="none" fill-rule="evenodd"><g fill="url(#EC2_svg__a)"><path d="M0 0h64v64H0z"></path></g><path fill="#FFF" d="M22 41h19V23H22v18Zm21-18h3v2h-3v2h3v2h-3v2h3v2h-3v3h3v2h-3v2h3v2h-3.137c-.255.587-.84 1-1.519 1H41v3h-2v-3h-2v3h-2v-3h-2v3h-2v-3h-2v3h-2v-3h-3v3h-2v-3h-.344a1.66 1.66 0 0 1-1.519-1H18v-2h2v-2h-2v-2h2v-3h-2v-2h2v-2h-2v-2h2v-2h-2v-2h2v-.344c0-.913.743-1.656 1.656-1.656H22v-3h2v3h3v-3h2v3h2v-3h2v3h2v-3h2v3h2v-3h2v3h.344c.913 0 1.656.743 1.656 1.656V23ZM32 52H12V32h4v-2h-4.157A1.845 1.845 0 0 0 10 31.843v20.314c0 1.016.826 1.843 1.843 1.843h20.314A1.845 1.845 0 0 0 34 52.157V48h-2v4Zm22-40.157v20.314A1.845 1.845 0 0 1 52.157 34H48v-2h4V12H32v4h-2v-4.157c0-1.016.826-1.843 1.843-1.843h20.314c1.017 0 1.843.827 1.843 1.843Z"></path></g></svg></svg></g></svg></g></g><g><g id="9899fd7e-ed63-48c2-87cc-ff6ec4c3df70"><svg x="563" y="405" overflow="visible"><g transform="scale(1.4131949617798671) "><circle cx="0" cy="0" fill="transparent" r="39"></circle><svg width="64" height="64" x="-32" y="-32" style="fill: rgb(255, 255, 255);"><svg xmlns="http://www.w3.org/2000/svg" width="64" height="64" viewBox="0 0 64 64"><defs><linearGradient id="EC2_svg__a" x1="0%" x2="100%" y1="100%" y2="0%"><stop offset="0%" stop-color="#C8511B"></stop><stop offset="100%" stop-color="#F90"></stop></linearGradient></defs><g fill="none" fill-rule="evenodd"><g fill="url(#EC2_svg__a)"><path d="M0 0h64v64H0z"></path></g><path fill="#FFF" d="M22 41h19V23H22v18Zm21-18h3v2h-3v2h3v2h-3v2h3v2h-3v3h3v2h-3v2h3v2h-3.137c-.255.587-.84 1-1.519 1H41v3h-2v-3h-2v3h-2v-3h-2v3h-2v-3h-2v3h-2v-3h-3v3h-2v-3h-.344a1.66 1.66 0 0 1-1.519-1H18v-2h2v-2h-2v-2h2v-3h-2v-2h2v-2h-2v-2h2v-2h-2v-2h2v-.344c0-.913.743-1.656 1.656-1.656H22v-3h2v3h3v-3h2v3h2v-3h2v3h2v-3h2v3h2v-3h2v3h.344c.913 0 1.656.743 1.656 1.656V23ZM32 52H12V32h4v-2h-4.157A1.845 1.845 0 0 0 10 31.843v20.314c0 1.016.826 1.843 1.843 1.843h20.314A1.845 1.845 0 0 0 34 52.157V48h-2v4Zm22-40.157v20.314A1.845 1.845 0 0 1 52.157 34H48v-2h4V12H32v4h-2v-4.157c0-1.016.826-1.843 1.843-1.843h20.314c1.017 0 1.843.827 1.843 1.843Z"></path></g></svg></svg></g></svg></g></g></g><g pointer-events="auto"><g><g id="974cd5b7-0a67-4bf1-ad3e-ddb675be4a6f" transform="translate(0 0)"><svg x="630" y="833" overflow="visible"><text stroke="#ffffff" stroke-width="0" font-family="Open Sans" y="26.24" font-size="16pt" fill="#333333" font-weight="bold" transform="" xml:space="preserve"><tspan x="8" dy="0">  Push</tspan></text><text font-family="Open Sans" y="26.24" font-size="16pt" fill="#333333" font-weight="bold" transform="" xml:space="preserve"><tspan x="8" dy="0">  Push</tspan></text></svg></g></g><g><g id="840d8c80-35bd-427b-a4ce-ede208b4558d"><svg x="450" y="630" overflow="visible"><text stroke="#ffffff" stroke-width="0" font-family="Open Sans" y="26.24" font-size="16pt" fill="#222222" font-weight="bold" transform="" xml:space="preserve"><tspan x="8" dy="0">  Processor</tspan><tspan x="8" dy="1.1em">   Endpoint</tspan></text><text font-family="Open Sans" y="26.24" font-size="16pt" fill="#222222" font-weight="bold" transform="" xml:space="preserve"><tspan x="8" dy="0">  Processor</tspan><tspan x="8" dy="1.1em">   Endpoint</tspan></text></svg></g></g><g><g id="3d6a4144-661d-447a-8d03-f75c2e31dac6"><svg x="180" y="630" overflow="visible"><text stroke="#ffffff" stroke-width="0" font-family="Open Sans" y="26.24" font-size="16pt" fill="#222222" font-weight="bold" transform="" xml:space="preserve"><tspan x="8" dy="0">     Source</tspan><tspan x="8" dy="1.1em">  Database</tspan></text><text font-family="Open Sans" y="26.24" font-size="16pt" fill="#222222" font-weight="bold" transform="" xml:space="preserve"><tspan x="8" dy="0">     Source</tspan><tspan x="8" dy="1.1em">  Database</tspan></text></svg></g></g><g><g id="7919b1c6-d87b-4a0e-a122-77b688f51fb8"><svg x="608" y="383" overflow="visible"><text stroke="#ffffff" stroke-width="0" font-family="Open Sans" y="26.24" font-size="16pt" fill="#333333" font-weight="bold" transform="" xml:space="preserve"><tspan x="8" dy="0"> Frontend </tspan><tspan x="8" dy="1.1em">&amp; Backend</tspan></text><text font-family="Open Sans" y="26.24" font-size="16pt" fill="#333333" font-weight="bold" transform="" xml:space="preserve"><tspan x="8" dy="0"> Frontend </tspan><tspan x="8" dy="1.1em">&amp; Backend</tspan></text></svg></g></g><g><g id="210e2147-29df-483f-bf3f-760c45877f16"><svg x="720" y="698" overflow="visible"><text stroke="#ffffff" stroke-width="0" font-family="Open Sans" y="26.24" font-size="16pt" fill="#222222" font-weight="bold" transform="" xml:space="preserve"><tspan x="8" dy="0"> Destination</tspan><tspan x="8" dy="1.1em">  Database</tspan></text><text font-family="Open Sans" y="26.24" font-size="16pt" fill="#222222" font-weight="bold" transform="" xml:space="preserve"><tspan x="8" dy="0"> Destination</tspan><tspan x="8" dy="1.1em">  Database</tspan></text></svg></g></g><g><g id="6d8b204a-837f-4aff-b9fc-fd7e76d6e09b" transform="translate(0 0)"><svg x="293" y="833" overflow="visible"><text stroke="#ffffff" stroke-width="0" font-family="Open Sans" y="26.24" font-size="16pt" fill="#333333" font-weight="bold" transform="" xml:space="preserve"><tspan x="8" dy="0">Pull</tspan></text><text font-family="Open Sans" y="26.24" font-size="16pt" fill="#333333" font-weight="bold" transform="" xml:space="preserve"><tspan x="8" dy="0">Pull</tspan></text></svg></g></g><g><g id="a913fb85-6136-4f29-8808-caeb47ff31c5" transform="translate(0 0)"><svg x="405" y="923" overflow="visible"><text stroke="#ffffff" stroke-width="0" font-family="Open Sans" y="46.76" font-size="34pt" fill="#333333" font-weight="bold" transform="" xml:space="preserve"><tspan x="8" dy="0"> Ambar</tspan></text><text font-family="Open Sans" y="46.76" font-size="34pt" fill="#333333" font-weight="bold" transform="" xml:space="preserve"><tspan x="8" dy="0"> Ambar</tspan></text></svg></g></g><g><g id="41d98b62-d247-45e6-9781-4352770f776f"><svg x="495" y="68" overflow="visible"><text stroke="#ffffff" stroke-width="0" font-family="Open Sans" y="26.24" font-size="16pt" fill="#333333" font-weight="bold" transform="" xml:space="preserve"><tspan x="8" dy="0">  End Users</tspan></text><text font-family="Open Sans" y="26.24" font-size="16pt" fill="#333333" font-weight="bold" transform="" xml:space="preserve"><tspan x="8" dy="0">  End Users</tspan></text></svg></g></g><g><g id="ae120b12-5990-4f6d-a6dc-290c576a896f" transform="translate(0 0)"><svg x="180" y="360" overflow="visible"><text stroke="#ffffff" stroke-width="0" font-family="Open Sans" y="38.78" font-size="27pt" fill="#333333" font-weight="bold" transform="" xml:space="preserve"><tspan x="8" dy="0">   Servers &amp;</tspan><tspan x="8" dy="1.1em">  Databases</tspan></text><text font-family="Open Sans" y="38.78" font-size="27pt" fill="#333333" font-weight="bold" transform="" xml:space="preserve"><tspan x="8" dy="0">   Servers &amp;</tspan><tspan x="8" dy="1.1em">  Databases</tspan></text></svg></g></g></g></g></svg>